<svg xmlns="http://www.w3.org/2000/svg" xmlns:xlink="http://www.w3.org/1999/xlink" viewBox="0 0 327.14 228.86"><defs><style>.cls-1{fill:url(#linear-gradient);}.cls-2{fill:url(#linear-gradient-2);}.cls-3{fill:url(#linear-gradient-3);}.cls-4{fill:url(#linear-gradient-4);}.cls-5{fill:url(#linear-gradient-5);}.cls-6{fill:url(#linear-gradient-6);}.cls-7{fill:url(#linear-gradient-7);}</style><linearGradient id="linear-gradient" x1="340.58" y1="73.65" x2="35.53" y2="232.64" gradientUnits="userSpaceOnUse"><stop offset="0" stop-color="#5e42ff"/><stop offset="1" stop-color="#282c5d"/></linearGradient><linearGradient id="linear-gradient-2" x1="327.29" y1="48.16" x2="22.26" y2="207.13" xlink:href="#linear-gradient"/><linearGradient id="linear-gradient-3" x1="342.69" y1="77.71" x2="37.66" y2="236.69" xlink:href="#linear-gradient"/><linearGradient id="linear-gradient-4" x1="338.13" y1="68.96" x2="33.11" y2="227.93" xlink:href="#linear-gradient"/><linearGradient id="linear-gradient-5" x1="331.85" y1="56.91" x2="26.82" y2="215.88" xlink:href="#linear-gradient"/><linearGradient id="linear-gradient-6" x1="294.17" y1="-15.39" x2="-10.86" y2="143.59" xlink:href="#linear-gradient"/><linearGradient id="linear-gradient-7" x1="301.19" y1="-2.85" x2="-4.21" y2="156.32" xlink:href="#linear-gradient"/></defs><g id="Layer_2" data-name="Layer 2"><g id="Layer_1-2" data-name="Layer 1"><path class="cls-1" d="M326.79,83.22C325.39,59.35,319.15,27,297.35,8.6,289.35,1.83,278.9-1,266.27.29,212.37,5.65,126.12,85.65,83,136c-2.27,5.52.21,16.4,2,19.24C128.89,100.27,218.56,18.89,267.64,14c8.89-.88,15.69.79,20.81,5.12C302.55,31,311.27,54.09,313,84c2.67,45.51-11.47,100-31.52,121.45-6.13,6.55-11.48,9.69-16.35,9.59-9.29-.19-19.55-12.1-31.42-25.89-16.37-19-37.35-43.37-69.35-51.65-4,3.83-8,7.75-11.76,11.72,32.61,4.73,53.4,28.88,70.66,48.93,14,16.29,26.14,30.36,41.59,30.67h.52c8.83,0,17.4-4.58,26.18-14C314.23,190.66,329.7,132.82,326.79,83.22Z"/><path class="cls-2" d="M258.25,80.34c1.45-5.89,6.88-11.18,12.12-11.82s8.32,3.62,6.88,9.51-6.88,11.18-12.12,11.82S256.81,86.23,258.25,80.34Z"/><path class="cls-3" d="M247.66,123.45c1.45-5.89,6.87-11.18,12.12-11.82s8.32,3.61,6.87,9.5-6.87,11.18-12.11,11.82S246.21,129.34,247.66,123.45Z"/><path class="cls-4" d="M284.27,87.73c5.25-.64,8.33,3.62,6.88,9.51s-6.87,11.18-12.12,11.82-8.32-3.62-6.87-9.51S279,88.37,284.27,87.73Z"/><path class="cls-5" d="M245.88,92.42c5.24-.64,8.32,3.61,6.87,9.5s-6.87,11.18-12.11,11.82-8.33-3.61-6.88-9.5S240.63,93.06,245.88,92.42Z"/><path class="cls-6" d="M89.23,93.71H79.82l3.61-9.41c2-5.18-.6-9.38-5.79-9.38s-11,4.2-13,9.38L61,93.71H51.63c-5.18,0-11,4.21-13,9.39s.6,9.39,5.79,9.39h9.41l-3.61,9.41c-2,5.18.6,9.38,5.78,9.38s11-4.2,13-9.38l3.61-9.41H82c5.19,0,11-4.21,13-9.39S94.41,93.71,89.23,93.71Z"/><path class="cls-7" d="M195.25,80.55C155,102.06,124.68,138,100.06,167.15c-21.81,25.86-40.65,48.17-56,47.68-6.77-.23-13.53-5-20.67-14.68C12.13,182.06,10.73,151,19.67,117c9-34.22,26.64-65,47.22-82.43,24.5-20.73,42.87-8.76,64.14,5.09a203.78,203.78,0,0,0,18.51,11.16q5.85-5,11.81-9.75c-7.49-3-15-7.88-22.8-13-11.3-7.36-23-15-36.1-17.62C87,7.38,72.44,11.81,58,24,35.33,43.19,16,76.63,6.33,113.49c-10.07,38.33-8.06,72.67,5.53,94.22l.28.41C22,221.53,32.3,228.23,43.61,228.61h1c21.63,0,41.25-23.25,66-52.58,23.14-27.43,51.48-61,87.84-81.51C198.9,89.91,197.93,83.38,195.25,80.55Z"/></g></g></svg>