<svg xmlns="http://www.w3.org/2000/svg" viewBox="0 0 373.27 250.29"><defs><style>.cls-1{fill:#fff;}</style></defs><g id="Layer_2" data-name="Layer 2"><g id="Layer_1-2" data-name="Layer 1"><path class="cls-1" d="M13.36,250.29a15.06,15.06,0,0,1-8-1.84,9.94,9.94,0,0,1-4.15-5.17A22.86,22.86,0,0,1,0,235.44V219.38a23.18,23.18,0,0,1,1.21-7.94,9.8,9.8,0,0,1,4.15-5.14,15.16,15.16,0,0,1,8-1.82,15.41,15.41,0,0,1,7.73,1.62A9,9,0,0,1,25,210.64a18.11,18.11,0,0,1,1.16,6.71v3.85H16.55v-4.46a20.65,20.65,0,0,0-.14-2.53,3.7,3.7,0,0,0-.79-2,2.79,2.79,0,0,0-2.26-.8,3,3,0,0,0-2.28.82,3.88,3.88,0,0,0-.93,2.07,16.65,16.65,0,0,0-.2,2.61v21a14.23,14.23,0,0,0,.25,2.72,3.8,3.8,0,0,0,1,2,2.93,2.93,0,0,0,2.17.74,2.71,2.71,0,0,0,2.2-.79,4,4,0,0,0,.83-2.07,19.86,19.86,0,0,0,.16-2.58v-4.67h9.63V237a19.22,19.22,0,0,1-1.13,6.79,9.34,9.34,0,0,1-3.91,4.73Q18.36,250.29,13.36,250.29Z"/><path class="cls-1" d="M44.32,250.29a15.32,15.32,0,0,1-7.92-1.76,9.88,9.88,0,0,1-4.18-5.06A22,22,0,0,1,31,235.61V219.05a21.73,21.73,0,0,1,1.26-7.86,9.81,9.81,0,0,1,4.18-5,15.53,15.53,0,0,1,7.92-1.73,15.81,15.81,0,0,1,8,1.73,9.73,9.73,0,0,1,4.21,5,21.73,21.73,0,0,1,1.26,7.86v16.56a22,22,0,0,1-1.26,7.86,9.79,9.79,0,0,1-4.21,5.06A15.58,15.58,0,0,1,44.32,250.29Zm0-7a2.93,2.93,0,0,0,2.26-.77,3.89,3.89,0,0,0,.93-2,13.43,13.43,0,0,0,.22-2.47V216.63a13.37,13.37,0,0,0-.22-2.5,3.87,3.87,0,0,0-.93-1.95,3,3,0,0,0-2.26-.77,2.78,2.78,0,0,0-2.14.77,3.8,3.8,0,0,0-.94,1.95,13.37,13.37,0,0,0-.22,2.5v21.45a16.69,16.69,0,0,0,.19,2.47,3.85,3.85,0,0,0,.88,2A2.83,2.83,0,0,0,44.32,243.3Z"/><path class="cls-1" d="M63.62,249.63l.77-44.54H75L79.84,231l5.28-25.9H95.3l.77,44.54h-7L88.26,220l-5.17,29.64H76.87l-5.49-29.86-.66,29.86Z"/><path class="cls-1" d="M102.5,249.63V205.09h15a13,13,0,0,1,6.6,1.51,9.2,9.2,0,0,1,3.84,4.4,17.29,17.29,0,0,1,1.27,7q0,5.18-1.71,7.89a8.87,8.87,0,0,1-4.61,3.77,19.53,19.53,0,0,1-6.55,1h-4v18.92Zm9.84-25.79h3.3a4.75,4.75,0,0,0,2.75-.66,3.19,3.19,0,0,0,1.24-2,18.5,18.5,0,0,0,.05-6.35,3.44,3.44,0,0,0-1.18-2.07,4.54,4.54,0,0,0-2.91-.76h-3.25Z"/><path class="cls-1" d="M129.17,249.63l8.41-44.54H148.8l8.3,44.54H148l-1.48-9.41H140l-1.54,9.41Zm11.71-15.29h4.73L143.25,217Z"/><path class="cls-1" d="M161.61,249.63V205.09h12.27a27.29,27.29,0,0,1,7.8,1,9.51,9.51,0,0,1,5.15,3.54,12.3,12.3,0,0,1,1.84,7.23,24.76,24.76,0,0,1-.44,4.9,9.27,9.27,0,0,1-1.62,3.71,8.92,8.92,0,0,1-3.39,2.61l6.11,21.56H179.16l-4.9-20h-2.8v20ZM171.46,224h2.75a5.93,5.93,0,0,0,3.24-.74,3.91,3.91,0,0,0,1.62-2.14,10.88,10.88,0,0,0,.47-3.39,8.14,8.14,0,0,0-1-4.45c-.7-1.06-2-1.59-3.85-1.59h-3.19Z"/><path class="cls-1" d="M192.46,249.63l8.42-44.54h11.21l8.31,44.54h-9.08l-1.48-9.41H203.3l-1.54,9.41Zm11.71-15.29h4.73L206.54,217Z"/><path class="cls-1" d="M235.79,250.29a12.19,12.19,0,0,1-7.28-1.93,10.39,10.39,0,0,1-3.8-5.41,26.34,26.34,0,0,1-1.12-8.06v-15a24.8,24.8,0,0,1,1.21-8.19,10.11,10.11,0,0,1,4.15-5.36,14.59,14.59,0,0,1,8-1.9,15.49,15.49,0,0,1,7.78,1.65,9.25,9.25,0,0,1,4,4.57,17.59,17.59,0,0,1,1.21,6.81v2.86h-9.62v-3.63a18,18,0,0,0-.19-2.64,3.67,3.67,0,0,0-.88-1.95,3,3,0,0,0-2.23-.74,2.86,2.86,0,0,0-2.31.85,4.22,4.22,0,0,0-.91,2.12,17.26,17.26,0,0,0-.19,2.64v20.62a12.28,12.28,0,0,0,.3,2.78,4.25,4.25,0,0,0,1.1,2.09,3.08,3.08,0,0,0,2.28.79,3.21,3.21,0,0,0,2.37-.82,4.51,4.51,0,0,0,1.15-2.15,11.43,11.43,0,0,0,.33-2.8v-5.22h-4v-5.78H250v23.1h-6.49l-.55-3.69a8,8,0,0,1-2.59,3.11A7.65,7.65,0,0,1,235.79,250.29Z"/><path class="cls-1" d="M254.05,249.63l8.41-44.54h11.22L282,249.63h-9.08l-1.48-9.41h-6.55l-1.54,9.41Zm11.71-15.29h4.73L268.13,217Z"/><path class="cls-1" d="M286.33,249.63l.77-44.54h10.56l4.89,25.9,5.28-25.9H318l.77,44.54h-7L311,220l-5.17,29.64h-6.21l-5.5-29.86-.66,29.86Z"/><path class="cls-1" d="M325.21,249.63V205.09h20v6.71H335.05v11h7.75v6.82h-7.75V243h10.28v6.66Z"/><path class="cls-1" d="M361.61,250.29a14.82,14.82,0,0,1-7-1.49,9.48,9.48,0,0,1-4.23-4.59,21.14,21.14,0,0,1-1.59-8.05l8.41-1.27a20.32,20.32,0,0,0,.52,4.62,5.09,5.09,0,0,0,1.32,2.53,3,3,0,0,0,2.06.77,2,2,0,0,0,2-1.05,5.32,5.32,0,0,0,.47-2.19,7.92,7.92,0,0,0-1.32-4.65,20.18,20.18,0,0,0-3.58-3.82l-3.85-3.36a21.82,21.82,0,0,1-4.26-4.86,12.36,12.36,0,0,1-1.73-6.74q0-5.67,3.36-8.66t9.12-3a11.86,11.86,0,0,1,5.75,1.21,8.45,8.45,0,0,1,3.3,3.16,13.23,13.23,0,0,1,1.54,4.13,27.2,27.2,0,0,1,.47,4.15l-8.47,1a34.05,34.05,0,0,0-.25-3.43,4.7,4.7,0,0,0-.8-2.26,2.18,2.18,0,0,0-1.87-.79,2.12,2.12,0,0,0-2,1.15,4.69,4.69,0,0,0-.64,2.31,6.51,6.51,0,0,0,1.19,4,22,22,0,0,0,3.1,3.27l3.69,3.25a25.18,25.18,0,0,1,4.92,5.61,14.07,14.07,0,0,1,2,7.75,11.48,11.48,0,0,1-1.43,5.69,10.42,10.42,0,0,1-4,4A12.29,12.29,0,0,1,361.61,250.29Z"/><path class="cls-1" d="M317.75,136.2c-.69,5.39-1.22,10.81-2.93,16-1.83,5.58-4.37,10.75-8.94,14.62-7.48,6.35-16,6.35-24.83,3.79-10.92-3.18-20-9.61-28.93-16.39-5.9-4.49-11.47-9.37-16.94-14.35-8.72-7.93-19.31-11.63-30.65-13.45-16.89-2.73-33.55-1.94-49.82,3.82-8.16,2.88-14.54,8.31-20.86,13.94-10.51,9.37-21.49,18.1-34.38,24.08-6.29,2.91-12.84,4.63-19.8,3.71-10-1.32-15.82-7.67-19.43-16.47-3.19-7.75-4.06-16-4.18-24.26a223.76,223.76,0,0,1,17.2-89.32C78,30.53,84.47,20.14,93.62,11.64,103.77,2.21,115.89-1,129.44.44,141,1.7,152.22,4.61,163.34,7.69a86,86,0,0,0,47.29,0A257.75,257.75,0,0,1,239.44,1C251.13-.9,262.54-.47,273,6c8.16,5,14.2,12.12,19.36,20,8,12.34,12.78,26.09,16.75,40.13a227.67,227.67,0,0,1,8.31,47.14,9.91,9.91,0,0,0,.32,1.49ZM68.55,126.07a76.66,76.66,0,0,0,.59,12.5c.52,5,1.42,10,3.9,14.44s6.08,6.65,11.3,6.21A35.51,35.51,0,0,0,97.62,155c9.87-5,18.41-12,26.59-19.3,7.85-7,16-13.46,26.08-17.09a108.84,108.84,0,0,1,57.05-4.4c13.64,2.46,26.15,7.45,36.4,17.18a190.82,190.82,0,0,0,17.74,15c7.41,5.48,15,10.67,24.16,12.89,8,1.92,12.8-.38,15.94-7.57a33.61,33.61,0,0,0,2.24-7.31c1.76-9.35,1.77-18.75,1.13-28.21a239.9,239.9,0,0,0-7.38-44.48c-3.44-13.22-8-26-15.27-37.72-4.14-6.64-9.09-12.56-16-16.56-8.93-5.2-18.54-5-28.28-3.35-10.32,1.77-20.38,4.71-30.59,7a100.37,100.37,0,0,1-19.92,2.83c-7.09.15-14-1.36-20.95-2.78-12.73-2.62-25.08-7-38.14-8.11-10.12-.86-19,1.87-26.64,8.6-7.91,7-13,16-17,25.51C74.16,72.32,69.27,98.78,68.55,126.07Z"/><path class="cls-1" d="M162.7,69.25a19,19,0,0,1-15.12,18.41c-1.64.35-2.15,1.07-2.5,2.61A19.18,19.18,0,0,1,126,105.2a18.91,18.91,0,0,1-18.33-15.15,2.65,2.65,0,0,0-2.46-2.37A19.06,19.06,0,0,1,89.73,69.25a18.86,18.86,0,0,1,14.94-19,3.55,3.55,0,0,0,3.08-3.1,19.14,19.14,0,0,1,37.3.22,3.27,3.27,0,0,0,2.9,2.9A19.16,19.16,0,0,1,162.7,69.25Zm-12.19-.43a6.48,6.48,0,0,0-6.25-6.5c-1.44-.1-2.9,0-4.34,0-3.89-.09-6.25-2.06-6.81-5.86-.25-1.67-.25-3.39-.34-5.08-.23-3.95-2.33-6.28-5.83-6.47-4-.21-6.41,1.77-7,5.79a29,29,0,0,0-.18,4.07c0,5-2.46,7.48-7.52,7.55-2,0-3.92-.11-5.8.62A6,6,0,0,0,102.3,69a6.14,6.14,0,0,0,4.6,5.76,21.13,21.13,0,0,0,5.83.46c4.44.07,6.87,2.5,7,7a20.36,20.36,0,0,0,.52,6.07,6.34,6.34,0,0,0,7,4.32,6.13,6.13,0,0,0,5.52-5.74c.09-1.35,0-2.72.1-4.08.25-4.63,2.77-7.15,7.41-7.42,1.36-.08,2.73,0,4.09-.07A6.29,6.29,0,0,0,150.51,68.82Z"/><path class="cls-1" d="M243.75,80.38a11.63,11.63,0,0,1-.07,23.26,11.63,11.63,0,1,1,.07-23.26Z"/><path class="cls-1" d="M232.09,68.9a11.74,11.74,0,0,1-11.66,11.69,12,12,0,0,1-11.6-11.86,11.57,11.57,0,0,1,11.65-11.39A11.28,11.28,0,0,1,232.09,68.9Z"/><path class="cls-1" d="M255.24,68.54c.1-6.52,5.2-11.3,12-11.2A11.63,11.63,0,0,1,278.49,69.1a12,12,0,0,1-11.71,11.49A11.67,11.67,0,0,1,255.24,68.54Z"/><path class="cls-1" d="M243.77,34A11.69,11.69,0,1,1,232,45.43,11.91,11.91,0,0,1,243.77,34Z"/></g></g></svg>